<?xml version="1.0" encoding="UTF-8"?>
<svg id="Layer_2" xmlns="http://www.w3.org/2000/svg" viewBox="0 0 160.02 225.71">
  <defs>
    <style>
      .cls-1 {
        fill: #a5a7a4;
      }

      .cls-2 {
        fill: #c9eafb;
      }

      .cls-3 {
        fill: #f17e7d;
      }

      .cls-4 {
        fill: #5e5f5f;
      }

      .cls-5 {
        fill: #232424;
      }

      .cls-6 {
        fill: #d5d5d6;
      }

      .cls-7 {
        fill: #cbccc7;
      }

      .cls-8 {
        fill: #007684;
      }

      .cls-9 {
        fill: #00b0c3;
      }

      .cls-10 {
        fill: #ed3c72;
      }

      .cls-11 {
        fill: #606162;
      }

      .cls-12 {
        fill: #00a9ac;
      }

      .cls-13 {
        fill: #dededd;
      }

      .cls-14 {
        fill: #fff;
      }

      .cls-15 {
        fill: #592324;
      }

      .cls-16 {
        fill: #242424;
      }

      .cls-17 {
        fill: #d48565;
      }

      .cls-18 {
        fill: #eead86;
      }

      .cls-19 {
        fill: #fbc6a4;
      }

      .cls-20 {
        fill: #dcddd9;
      }

      .cls-21 {
        fill: #613826;
      }
    </style>
  </defs>
  <g id="Layer_1-2" data-name="Layer_1">
    <g>
      <path class="cls-16" d="M61.9,50.19c.52,10.19-.75,18.77-7.58,24.91-6.84,6.14,3.39,10.45,9.84,3.31-22.19,23.57-14.73,45.02,8.35,32.88,2.84,22.05,43.47,39.7,60.83,2.89,3.05,14.28,32.68,15.05,16.92-26.71,6.9,9.08,14.65,3.51,5.77-10.34-7.06-11.01-.56-20.33-.56-20.33l-93.57-6.6Z"/>
      <g>
        <g>
          <path class="cls-19" d="M114.09,199.9s.21,8.56.47,13.22c-3.08.79-5.01.21-5.01.21l-1.58-14.15,6.12.73Z"/>
          <g>
            <g>
              <path class="cls-13" d="M108.61,215.46c-.6,1.34-.79,3.74,2.33,6.41,3.11,2.67,6.2,4.92,10.89,3.29,3.86-1.34,2.23-5.87,2.23-5.87l-15.46-3.83Z"/>
              <path class="cls-5" d="M109.12,209.86c-.75,1.21-1.56,5.91.8,7.98,2.34,2.07,7.3,6.22,11.91,4.51,4.2-1.55,1.78-5.23-.56-6.72-2.34-1.5-6.8-5.65-6.8-5.65,0,0-.63,2.59-5.35-.12Z"/>
            </g>
            <path class="cls-13" d="M117.06,212.13c-1.75-.53-4.2.32-5.05,1.54-.84,1.22.17,2.2.9,2.14.73-.06,2.86-1.06,5.26-1.36,2.4-.29.29-1.9-1.11-2.32Z"/>
            <path class="cls-13" d="M120.51,214.89c-1.75-.53-4.2.32-5.05,1.54-.84,1.22.17,2.2.9,2.14.73-.06,2.86-1.06,5.26-1.36,2.4-.29.29-1.9-1.11-2.32Z"/>
          </g>
        </g>
        <g>
          <path class="cls-19" d="M84.39,199.9s-.21,8.56-.47,13.22c3.08.79,5.01.21,5.01.21l1.58-14.15-6.12.73Z"/>
          <g>
            <g>
              <path class="cls-13" d="M89.87,215.46c.6,1.34.59,3.94-2.52,6.6-3.11,2.67-6.68,4.5-11.38,2.91-3.96-1.34-1.55-5.68-1.55-5.68l15.46-3.83Z"/>
              <path class="cls-5" d="M89.36,209.86c.75,1.21,1.56,5.91-.8,7.98-2.34,2.07-6.54,5.82-12.21,4.27-4.44-1.21-1.48-4.98.86-6.48,2.34-1.5,6.8-5.65,6.8-5.65,0,0,.63,2.59,5.35-.12Z"/>
            </g>
            <path class="cls-13" d="M81.42,212.13c1.75-.53,4.2.32,5.05,1.54.84,1.22-.17,2.2-.91,2.14-.73-.06-2.86-1.06-5.26-1.36-2.4-.29-.29-1.9,1.11-2.32Z"/>
            <path class="cls-13" d="M77.97,214.89c1.75-.53,4.19.32,5.05,1.54.84,1.22-.17,2.2-.91,2.14-.73-.06-2.86-1.06-5.26-1.36-2.4-.29-.29-1.9,1.11-2.32Z"/>
          </g>
        </g>
        <g>
          <path class="cls-19" d="M89.92,108.73l7.11-.61v-5.25h4.27v5.26s6.98.6,6.98.6c.51,9.59-8.57,10.09-9.17,10.12h0s0,0-.02,0c0,0-.01,0-.01,0h0c-.6-.02-9.67-.53-9.17-10.12Z"/>
          <path class="cls-18" d="M99.1,108.02c-.78,0-1.45.32-1.83.79v-2.2h3.66v2.2c-.38-.48-1.06-.79-1.83-.79Z"/>
        </g>
        <g>
          <path class="cls-10" d="M88.36,108.81c.05,8.15,5.4,11.16,10.77,10.4h0s.02,0,.03,0c.01,0,.02,0,.04,0l-2.7-.9c5.37.76,13.42-1.35,13.47-9.49,2.32,0,11.88,2.48,18.42,11.01,1.19,5.6-10.59,9.82-11.71,8.16.05,6.31,2.01,19.04,1.68,21.84,0,0-7.46,1.58-19.16,1.71h0s-.02,0-.04,0h-.03c-11.71-.13-19.16-1.71-19.16-1.71-.32-2.8.87-18.14.92-24.45-6.11,0-10.4-.7-11.94-.99-3.22-.61.82-13.52-1-13.08,3.7.99,18.1-2.48,20.41-2.48Z"/>
          <path class="cls-14" d="M85.91,109.06s2.85-.49,4.43-1.09c-.22,2.33-.61,7.99,5.33,8.11,5.94-.12,11.65-3.18,12.51-8.11,1.58.6,4.43,1.09,4.43,1.09,0,0-4.53,11.3-16.83,11.3-12.09,0-9.87-11.3-9.87-11.3Z"/>
        </g>
        <g>
          <path class="cls-9" d="M99.13,148.39s10.31-.03,19.3-1.94c-.07,14.96,1.34,36.88.77,55.26-2.12,2.56-4.49,1.49-13,1.94-2.76-11.26-5.96-26.94-7.08-33.51-1.11,6.57-4.32,22.26-7.08,33.51-8.51-.45-10.88.61-13-1.94-.57-18.38.84-40.3.77-55.26,9,1.91,19.26,1.93,19.3,1.94Z"/>
          <path class="cls-8" d="M99.13,154.24s-10.15-.03-19.27-1.88c-.02-2.06-.03-5.46-.04-7.33,11.56,3.53,29.61,1.91,38.61,0,0,1.87-.02,5.27-.04,7.33-9.11,1.86-19.22,1.87-19.27,1.88Z"/>
          <path class="cls-8" d="M112.32,155.67s1.93,4.71,5.34,6.98c-.56,1.13-1.69,3.02-1.69,3.02,0,0-6.51-4.46-7.41-9.24,2.27,0,3.76-.76,3.76-.76Z"/>
          <path class="cls-8" d="M85.71,155.67s-1.93,4.71-5.34,6.98c.56,1.13,1.69,3.02,1.69,3.02,0,0,6.51-4.46,7.41-9.24-2.27,0-3.76-.76-3.76-.76Z"/>
          <path class="cls-8" d="M104.66,198.58s8.34,1.4,14.77-1.45c.23,2.9.29,7.12.11,7.68,0,0-8.79,2.68-13.52.7-.55-1.6-.89-4.5-1.36-6.93Z"/>
          <path class="cls-8" d="M93.59,198.58s-8.34,1.4-14.77-1.45c-.23,2.9-.29,7.12-.11,7.68,0,0,8.79,2.68,13.52.7.54-1.6.89-4.5,1.35-6.93Z"/>
          <path class="cls-9" d="M97.01,151.49c.15,1.19,1.23,2.04,2.42,1.89h0c1.19-.15,2.04-1.23,1.89-2.42h0c-.15-1.19-1.23-2.04-2.42-1.89h0c-1.19.15-2.04,1.23-1.89,2.42h0Z"/>
        </g>
      </g>
      <g>
        <g>
          <g>
            <path class="cls-16" d="M151.03,29.08C137.42,3.58,104-8.65,79.41,6.86c-17.97,11.33-11.2,18.86-11.2,18.86,0,0-13.93-3.4-18.32,13.73-1.45,5.64,1.05,26.95,12.09,27.79,0,0,26.05,1.3,40.88,1.48,14.62,2.51,43.41,6.2,43.41,6.2,15.87-19.24,9.57-36.85,4.77-45.85Z"/>
            <path class="cls-19" d="M62.34,65.84c-2.09,22.96,14.44,39.87,36.54,41.88,22.11,2.01,41.41-11.64,43.5-34.6,2.09-22.96-14.21-42.37-36.32-44.38-22.11-2.01-41.64,14.15-43.72,37.1Z"/>
            <g>
              <g>
                <path class="cls-19" d="M63.92,66.16s-.11-4.71-5.67-6.04c-5.86-1.39-9.14,6.12-6.5,11.15,2.64,5.02,9.24,5.88,11.73,2.48l.44-7.59Z"/>
                <path class="cls-17" d="M56.85,62.01c3.94-.19,6.19,6.99.51,9.85,2.82-4.51,1.01-6.41-2.05-4.48.23-1.56,1.32-2.42,3.62-1.96.08-2.09-2.09-3.42-2.09-3.42Z"/>
              </g>
              <g>
                <path class="cls-19" d="M141.02,73.18s.96-4.61,6.66-4.91c6.01-.31,7.89,7.67,4.39,12.14-3.5,4.46-10.15,4.12-11.98.33l.93-7.55Z"/>
                <path class="cls-17" d="M148.72,70.38c-3.85-.9-7.35,5.76-2.28,9.6-1.96-4.95.16-6.49,2.82-4.04.05-1.58-.86-2.62-3.21-2.58.3-2.07,2.67-2.98,2.67-2.98Z"/>
              </g>
            </g>
            <path class="cls-3" d="M97.18,67.02c.17,2.44,6.15,5.78,3.58,8.48-1.59,1.68-4.83.92-4.5-2.72.19-2.11.92-5.76.92-5.76Z"/>
            <g>
              <path class="cls-3" d="M83.38,80.45c-.21,2.36-3.96,3.95-8.37,3.55-4.41-.4-7.81-2.64-7.59-5,.22-2.36,3.96-3.95,8.37-3.55,4.41.4,7.81,2.64,7.59,5Z"/>
              <path class="cls-3" d="M128.72,84.58c-.22,2.36-3.96,3.95-8.37,3.55-4.41-.4-7.81-2.64-7.59-5,.22-2.36,3.96-3.95,8.37-3.55,4.41.4,7.81,2.64,7.59,5Z"/>
            </g>
            <g>
              <path class="cls-16" d="M119.64,57.07c1.53-3.85,8.9-2.73,10.69,4.27-2.96-3.88-10.69-4.27-10.69-4.27Z"/>
              <path class="cls-16" d="M83.14,53.74c-.8-4.06-8.26-4.29-11.28,2.27,3.61-3.28,11.28-2.27,11.28-2.27Z"/>
            </g>
            <path class="cls-15" d="M97.57,85.65c-3.14-.96-4.86,1.68-2.99,3.74,1.87,2.05,2.43,3.36,1.12,5.42-1.31,2.06,3.74,3.36,5.42-.37,1.68-3.74-.23-7.76-3.55-8.78Z"/>
            <path class="cls-16" d="M126.46,76.39s-6.51-9.51-17.46-4.46c11.26-9.77,17.46,4.46,17.46,4.46Z"/>
            <g>
              <g>
                <path class="cls-14" d="M88.88,65.44c.91,4.17-1.55,8.24-5.48,9.1-3.94.86-7.86-1.83-8.77-5.99-.91-4.17,1.55-8.24,5.48-9.1,3.94-.85,7.86,1.83,8.77,6Z"/>
                <path class="cls-5" d="M84.28,66.36c.56,2.57-.95,5.08-3.38,5.61-2.43.53-4.85-1.13-5.41-3.7-.56-2.57.95-5.08,3.38-5.61,2.43-.53,4.85,1.13,5.41,3.7Z"/>
                <path class="cls-14" d="M79.57,65.25c-.13.78-.84,1.31-1.58,1.19-.74-.13-1.23-.86-1.09-1.65.13-.78.84-1.31,1.58-1.19.74.13,1.23.87,1.1,1.65Z"/>
                <path class="cls-14" d="M82.7,69.75c-.08.47-.5.79-.95.71-.44-.08-.74-.52-.66-.99.09-.47.5-.79.95-.71.44.08.74.52.66.99Z"/>
              </g>
              <path class="cls-21" d="M74.52,62.58s6.79-5.82,13.97.17c-6.47-9.58-13.97-.17-13.97-.17Z"/>
            </g>
          </g>
          <path class="cls-16" d="M78.72,34.08c-8.93,7.88-4.41,11.09-.64,9.68,4.85-1.81,5.25-8.32,5.25-8.32,0,0,25.49,22.36,37.23,14.82,6.1-3.92-1.2-14.4-1.2-14.4,0,0,8.44,14.25,14.63,10.94,9.65-5.16-16.26-22.2-29.78-22.23-13.52-.02-25.5,9.51-25.5,9.51Z"/>
        </g>
        <path class="cls-10" d="M125.06,45.59c-11.7-1.05-22.07,7.62-23.12,19.32-.05.53-.07,1.07-.08,1.6l-6.42-.58c.09-.52.16-1.05.21-1.58,1.05-11.7-7.62-22.07-19.32-23.12-11.7-1.05-22.07,7.62-23.12,19.32-1.05,11.7,7.62,22.07,19.32,23.12,10.01.9,19.05-5.33,22.1-14.47l7.44.67c1.38,9.54,9.17,17.27,19.18,18.17,11.7,1.05,22.07-7.62,23.12-19.32,1.05-11.7-7.62-22.07-19.32-23.12ZM121.56,84.72c-9.88-.88-17.19-9.64-16.31-19.51.88-9.88,9.64-17.19,19.51-16.31,9.88.88,17.19,9.64,16.31,19.51-.88,9.88-9.64,17.19-19.51,16.31ZM72.83,80.36c-9.88-.88-17.19-9.63-16.31-19.51.88-9.87,9.64-17.19,19.51-16.31,9.87.88,17.19,9.64,16.31,19.51-.88,9.88-9.64,17.19-19.51,16.31Z"/>
      </g>
      <path class="cls-19" d="M65.67,118.54c-3.13.21-20.49-4.34-21.85-31.91-2.12-.05-2.75-.96-4.01-3.92-1.56-1.82-2.3-3.32-1.48-3.78.85-.46,2.41,1.69,2.87,2.17-.03-.1-1.51-2.85-1.82-3.5-.73-1.52.55-2.37,1.42-1.18.72,1,2.15,3.27,2.23,3.4-.03-.14-1.27-3.33-1.52-3.91-.71-1.72,1.11-2.74,1.95-.79.57,1.33,1.5,3.7,1.63,3.88.04-.11-.21-2.02-.28-3.17-.13-2.32,1.53-2.56,2.02-.47.39,1.66,1.1,5.57,1.1,5.57,0,0,2.72-1.74,3.18-1.23,1.41,1.57-2.71,4.65-2.71,4.65,0,0,4.44,30.61,19.25,28.09,3.06,3.98-.39,5.98-1.99,6.08Z"/>
      <g>
        <g>
          <g>
            <path class="cls-1" d="M75.9,65.27c2.5.55,2.64,5.04,1.24,5.97-5.79,1.21-8.09,1.65-8.09,1.65l-1.15-6.56s4.05-.55,8-1.06Z"/>
            <path class="cls-7" d="M74.26,65.34c2.67.59,2.82,5.37,1.32,6.36-6.17,1.29-8.62,1.75-8.62,1.75l-1.23-6.99s4.31-.59,8.52-1.12Z"/>
            <path class="cls-7" d="M68.05,63.9c4.61,1.01,4.87,9.29,2.28,11.01-31.55,6.54-61.28,14.84-61.28,14.84l-3.87-20.68s41.93-2.84,62.87-5.17Z"/>
            <path class="cls-20" d="M5.97,73.26c20.78-2.62,41.63-4.76,64.47-7.84.48.59.84,1.31,1.09,2.08-26,3.63-40.05,5.23-65.03,8.58l-.53-2.81Z"/>
            <path class="cls-5" d="M64.53,64.28c1.29-.14,2.47-.27,3.52-.39,4.61,1.01,4.87,9.29,2.28,11.01-1.26.26-2.58.53-3.93.82,1.69-2.85,1.32-9.01-1.87-11.44Z"/>
            <path class="cls-4" d="M65.27,64.96c1.44-.19,2.8-.37,4.06-.54.75.47,1.32,1.17,1.74,1.99-1.43.2-2.94.41-4.51.62-.33-.78-.76-1.49-1.3-2.08Z"/>
            <path class="cls-5" d="M28.64,67.64c3.65-.37,7.32-.75,10.92-1.12,3.93,3.31,4.34,11.09,2.15,14.7-3.54.74-7.09,1.48-10.6,2.22,2.09-4.17,1.55-12.13-2.47-15.8Z"/>
            <path class="cls-5" d="M3.22,66.63c2.59-.21,7.01-.58,12.62-1.05,8.89,3.4,9.57,19.58,4.65,24.3-5.61,1.31-10,2.35-12.64,2.97,4.84-5.56,4.11-21.79-4.63-26.23Z"/>
            <path class="cls-4" d="M8.23,71.67c3.92-.49,8.21-1.02,12.74-1.59.48.79.89,1.63,1.23,2.52-4.46.59-8.75,1.15-12.77,1.68-.34-.91-.73-1.79-1.2-2.61Z"/>
            <path class="cls-6" d="M.47,80.6c1.26,7.22,4.65,12.65,7.58,12.14,2.92-.51,4.28-6.77,3.02-13.99-1.26-7.22-4.65-12.65-7.58-12.14-2.93.51-4.28,6.77-3.02,13.99Z"/>
            <path class="cls-11" d="M1.95,80.35c1.08,6.19,3.57,10.93,5.56,10.59,1.99-.35,2.73-5.65,1.65-11.84-1.08-6.19-3.57-10.93-5.56-10.58-1.99.35-2.73,5.65-1.65,11.84Z"/>
            <path class="cls-12" d="M5.15,69.14c1.59,1.48,3.19,5.3,4,9.95,1.01,5.78.43,10.78-1.27,11.71-1.59-1.48-3.19-5.3-4-9.95-1.01-5.78-.43-10.78,1.27-11.71Z"/>
            <path class="cls-2" d="M6.24,73.54c.38-1.89-1.68-2.39-1.88.06-.34,4.09.79,8.48.79,8.48,0,0,.5-5.59,1.09-8.53Z"/>
          </g>
          <path class="cls-4" d="M30.37,69.07c3.48-.44,6.91-.87,10.25-1.29.55.68,1,1.47,1.35,2.32-3.36.45-6.8.9-10.28,1.36-.35-.86-.79-1.67-1.32-2.38Z"/>
        </g>
        <path class="cls-19" d="M47.63,80.96c.41-.81.48-4.36,1.93-4.91,1.45-.55,1.92,2.5,1.91,4.33-.02,1.83-2.78,4.17-3.77,3.53-.52-.34-.35-2.4-.07-2.95Z"/>
      </g>
      <g>
        <path class="cls-19" d="M125.37,124s5.14,7.06,6.05,32.39c1.56,1.2,2.01,3.73,1.34,6.65.17,2.22-.09,3.75-.96,3.64-.89-.11-.88-2.59-.97-3.21-.03.1-.38,3.13-.5,3.79-.29,1.54-1.79,1.46-1.79.09.01-1.15.2-3.77.2-3.91-.05.13-.86,3.2-1,3.77-.42,1.68-2.34,1.46-1.91-.48.3-1.31.9-3.6.9-3.81-.09.06-.95,1.64-1.52,2.53-.95,1.48-2.34.87-1.56-.98.62-1.46,1.82-5.41,1.82-5.41,0,0-1,.1-1.42.19-.11-2.77,2.69-2.97,2.69-2.97,0,0,.06-19.27-6.9-30,1.75-1.64,5.52-2.3,5.52-2.3Z"/>
        <path class="cls-14" d="M119.32,131.3s8.54-4.28,11.51-9.56c-.97-1.35-2.41-2.89-2.41-2.89,0,0-5.57,5.8-11.74,9.15,1.5,1.98,2.65,3.3,2.65,3.3Z"/>
      </g>
      <path class="cls-14" d="M67.05,124.88s-1.91-8.64.14-13.85c1.54-.09,3.49.04,3.49.04,0,0-.91,7.39.29,13.79-2.3.08-3.92.03-3.92.03Z"/>
    </g>
  </g>
</svg>
